<?xml version="1.0" encoding="utf-8"?>
<!-- Generator: Adobe Illustrator 25.2.0, SVG Export Plug-In . SVG Version: 6.00 Build 0)  -->
<svg version="1.1" id="Calque_1" xmlns="http://www.w3.org/2000/svg" xmlns:xlink="http://www.w3.org/1999/xlink" x="0px" y="0px"
	 viewBox="0 0 117.1 99.7" style="enable-background:new 0 0 117.1 99.7;" xml:space="preserve">
<style type="text/css">
	.st0{stroke:#8A4018;stroke-miterlimit:10;}
</style>
<g id="Calque_1_1_">
	<path class="st0" d="M92.6,54.6L92.6,54.6z"/>
	<path class="st0" d="M92.6,54.6L92.6,54.6z"/>
	<path class="st0" d="M9.6,82.3c0.2,2.7,0.2,5.4,0.1,8.2c3.9-2.9,7.9-3.8,14.3-0.9c-1.9-1.5-3.1-3.6-3.6-5.9l6.2,2.5
		c0.8,3.1,4.5,6.1,9.3,7.7c0.3,3.6,1.8,4.7,4.7,5.7c28.6,0.4,59.2,0,62.7,0.2s3.2-3.4,3.1-5.2s2.9-3.7,8.5-5.2
		c2.2-0.5,1.8-4.1,2.2-7.7c-14.9-0.1-20.1,0.1-20.1,0.1l-3.7,2.5l-0.1-5c1.2-0.8,9.2-5.5,21.8-1.5c-5.5-6.2-8.2-16.2-6.1-34.2
		c-3.7,7.5-9.7,11.2-16.3,10.9l0,0c1.9,4.1,4.5,18,0.5,23.4l-0.5-23.4l0,0l-0.1-3.3h1.8l0.1-1h-1.8l-0.2-6.9c3.6-1.9,8-1.7,11.4,0.5
		c-1.3-4.9-2.9-9.8-4.8-14.6c-1.9,1.6-4.4,2.6-6.9,2.7l0-2.2h1.7v-1H92L91.8,19l-0.1,9.9H90v1h1.7V32c-1.2,0-2.4-0.6-3.2-1.5
		c-2.9,4.6-4.4,14.9-3.6,19.6c1.7-2.6,4-4.7,6.7-6.2l-0.1,6.5h-1.8v1h1.8L91,85.1H79.6L76.5,87h-4.9l-0.1-7.4
		c6.2,0.4,12.3,1.8,18.1,4c-2.8-1.9-8.3-24.4-5.4-38l0,0C84.1,45,80.9,26.3,78.9,24c-3,0.7-5.4,4.2-8.4,7.2v-2.9h1.5
		c0,0,0-0.9,0-0.9h-1.5l-0.1-5.1c3.3-1.1,7-0.7,10,1.2c-1.9-5.2-4.9-14.8-4.9-14.8c-1.6,1.1-3.5,1.8-5.4,2.2L70.1,0.7L70,10.9
		c-2.5,0.5-4.6,0.1-5-1.7c-4.5,6.1-3.7,17.8-3.5,20.2c1.9-3.2,4.9-5.7,8.4-7.1l0,4.9H68v0.9h1.7v3.7c-1.4,1.4-3.1,2.3-5,2.8
		c-1.4,0.1-1.8-0.6-1.8-1.2c-2.6,1.9-4.4,4.6-5.2,7.7l-1-4.6c0.4,0.2,0.7,0.5,0.9,0.8c0-3.9-4.4-15-4.4-15c-1.6,1.2-3.3,2-5.2,2.4
		v-1.6h1.4l-0.1-0.8H48l-0.2-8.9l-0.1,8.9h-1.4v0.8h1.4v1.7c-2.2,0.4-4.2,0.1-4.7-1c-1.3,2.5-2.3,5.1-3,7.8h-0.1l-0.1,0.2
		C32.1,38.3,5,69.7,1.7,73.2c7.3-6.6,11.2-9.4,19.7-8.1c-4.4,4.1-8.9,8.8-10,10c5.4-4.3,12.3-6.6,17.5-4.7c1-5.8,3.1-12.2,5.6-14.5
		c-0.3,2.9,0,5.7,0.9,8.5c2.5-3.6,7.2-6.7,11.9-8.4v2h-1.7V59H46c-7.2,4.2-28,19.9-29.3,20.9l0,0l-0.9,0.5l-15.7-5l14.4,5.8
		C12.9,81.7,11.3,82.1,9.6,82.3z M70.8,44.9c3.9-1.5,8.3-1.3,12.1,0.4c-2,1.4-7.1,5-11.9,8.4v-2.1h1.6l-0.1-1H71L70.8,44.9z
		 M69.5,54.9c-3.6,2.5-6.7,4.7-8,5.5c-0.4-1.5-0.7-3-0.9-4.6l1.5,0.6l-1.3-5.6l0,0l0,0c2.6-2.3,5.6-4.1,8.8-5.4l-0.1,5.2H68v1h1.5
		L69.5,54.9z M49.1,74.1c1.7-0.9,3.7-1.2,5.6-1c0.1,3.5,0.8,7.1,2.2,10.3c0.6-3,5.9-4.1,12.3-3.9L69.1,87H49.4L49.1,74.1z
		 M48.7,55.5c2.4-0.8,5-1.1,7.6-0.9c-2.1,2.7-4.6,5-7.4,7l-0.1-2.5h1.3v-0.9l0-0.2h-1.3L48.7,55.5z M48,36.3c0,0,2.1-1.4,6.1-0.6
		c-1.9,1.7-5.6,5.1-6,5.6c0-0.6,0-1.1,0-1.6h1.2V39v-0.2H48L48,36.3z M47.3,42.9c-3,2.3-6,3.7-7.4,1.8c-1.9,1.8-3.4,4-4.3,6.5
		L23.6,63c0.9-8.5,12.8-25.7,16.1-30.2c-0.9,3.6-1.1,7.2-0.6,10.9c2.1-3.1,4.9-5.5,8.3-7.1v2.3h-1.8v0.8h1.8L47.3,42.9z M20.2,77.9
		c4.6-2.4,7.4-2.6,11.4,0.4c1.5-4,5.1-9.1,8.6-13c0.4-0.6,0.9-1.1,1.4-1.5c1.5-1.8,3.3-3.4,5.3-4.6h0.2L47,62.6
		c-2.2,1.1-3.8,1.1-4.4,0.4c-0.4,0.2-0.8,0.4-1.1,0.7c-0.5,0.5-0.9,1-1.4,1.5c-2.6,3.7-3.3,10.9-1.9,17.9c0.2-1.3,4.1-5.4,8.5-8
		l-0.1,9.6c0,0-12.6-0.2-18-0.1l-8.6-2.8C19.9,80.5,20,79.2,20.2,77.9z"/>
	<path class="st0" d="M70,0.7c4.2-0.7,5.7-1.2,14.3,0.3S96,1.2,96,1.2c-5.9,1.4-7.7,1-10.8,0.6s-10-0.9-10.9,0s5.6,0.2,8.5,0.3
		s9.1,0.7,11.2,0.9C88.9,3.1,82.9,2.5,78,3s-7.1,0.6-7.9,0.4C70,1.6,70,0.7,70,0.7z"/>
	<path class="st0" d="M40.1,65.3c0.5-0.5,0.9-1.1,1.4-1.5C41,64.2,40.5,64.7,40.1,65.3z"/>
	<path class="st0" d="M40.1,65.3c0.5-0.5,0.9-1.1,1.4-1.5C41,64.2,40.5,64.7,40.1,65.3z"/>
</g>
</svg>
