<svg xmlns="http://www.w3.org/2000/svg" viewBox="0 0 117.08 99.73"><defs><style>.cls-1{fill:#964d16;}</style></defs><title>bateau_droit</title><g id="Calque_1" data-name="Calque 1"><path class="cls-1" d="M428.26,298.7h0Z" transform="translate(-403.75 -244.13)"/><path class="cls-1" d="M428.26,298.7h0Z" transform="translate(-403.75 -244.13)"/><path class="cls-1" d="M506.46,325.37l14.38-5.79-15.71,5.05-.87-.55h0c-1.32-1-22.17-16.69-29.33-20.87h.54v-1.09h-1.71l0-2c4.69,1.75,9.32,4.81,11.85,8.41a18.87,18.87,0,0,0,.89-8.46c2.46,2.37,4.62,8.73,5.58,14.54,5.17-1.89,12,.38,17.46,4.7-1.06-1.21-5.59-6-10-10,8.49-1.37,12.34,1.47,19.67,8.07-3.32-3.48-30.37-34.86-38.13-41.24l-.11-.21,0,0a34.52,34.52,0,0,0-3-7.79c-.5,1.1-2.44,1.36-4.68,1l0-1.71h1.43v-.78H473.2l-.14-8.91-.2,8.91h-1.37l-.07.78h1.42l0,1.62a13.38,13.38,0,0,1-5.23-2.35s-4.43,11.12-4.43,15a1.79,1.79,0,0,1,.91-.84l-1,4.57a14.29,14.29,0,0,0-5.2-7.74c0,.64-.36,1.34-1.76,1.2a11.29,11.29,0,0,1-5-2.83l0-3.71h1.75v-.88h-1.76l-.06-4.92a17,17,0,0,1,8.42,7.08c.21-2.37,1-14.13-3.48-20.2-.45,1.78-2.59,2.2-5.06,1.72l-.11-10.26-.18,10.2a15.19,15.19,0,0,1-5.3-2.34s-3,9.54-4.91,14.77a11.89,11.89,0,0,1,10-1.19l-.09,5.14h-1.46s-.05.88-.05.88h1.49l-.05,2.87c-2.92-2.91-5.32-6.49-8.35-7.16-2,2.39-5.17,21.06-5.26,21.64v0c2.95,13.64-2.53,36.14-5.34,38a61.15,61.15,0,0,1,18.09-4l-.14,7.43h-4.88l-3.16-1.9H429.89l-.42-33.79h1.78v-1h-1.79l-.08-6.46a19.41,19.41,0,0,1,6.69,6.25c.7-4.71-.78-15.05-3.66-19.62a3.94,3.94,0,0,1-3.18,1.55l0-2.18h1.65v-1h-1.67l-.12-9.81-.23,9.81h-1.7v1h1.68l-.05,2.19a11.62,11.62,0,0,1-6.91-2.69A144.13,144.13,0,0,0,417.08,288a11.32,11.32,0,0,1,11.43-.5l-.15,6.9h-1.82l.07,1h1.72l-.07,3.31h0l-.54,23.41c-4-5.39-1.31-19.29.54-23.41h0c-6.61.35-12.59-3.38-16.31-10.9,2.11,18-.64,27.92-6.12,34.17,12.69-4,20.68.74,21.86,1.52l-.12,4.95-3.67-2.53s-5.27-.21-20.15-.1c.43,3.58,0,7.17,2.22,7.7,5.7,1.47,8.65,3.37,8.54,5.17s-.42,5.38,3.06,5.16,34.07.22,62.66-.21c2.95-.95,4.43-2.11,4.74-5.69,4.81-1.58,8.49-4.53,9.32-7.68l6.18-2.49a10.28,10.28,0,0,1-3.61,5.91c6.4-2.91,10.33-2,14.27.92-.1-1.55-.1-4.36.07-8.16A21.05,21.05,0,0,1,506.46,325.37ZM449.9,294.76h-1.56s0,1,0,1h1.59l0,2.13c-4.79-3.36-9.9-7-11.9-8.4a15.56,15.56,0,0,1,12.06-.42Zm1.45,1h1.45v-1h-1.46l-.06-5.23a32,32,0,0,1,8.83,5.44l0,0h0l-1.28,5.54,1.48-.64a26.21,26.21,0,0,1-.92,4.58c-1.29-.83-4.46-3-8-5.5Zm20.07,35.33H451.74l-.08-7.55c6.4-.19,11.64.88,12.25,3.93a29.45,29.45,0,0,0,2.18-10.34,10.34,10.34,0,0,1,5.62,1Zm.64-29h-1.33l0,.23v.86H472l-.05,2.48a35,35,0,0,1-7.42-7,18.66,18.66,0,0,1,7.55.92ZM472.8,283h-1.22l0,.17v.67h1.18c0,.47,0,1,0,1.59-.42-.46-4.11-3.91-6-5.6,4-.8,6.08.6,6.08.6Zm.66.84h1.77V283h-1.78l0-2.28a20.51,20.51,0,0,1,8.28,7.06,29.46,29.46,0,0,0-.56-10.86c3.23,4.54,15.16,21.74,16.07,30.22l-12-11.88a18.31,18.31,0,0,0-4.31-6.5c-1.38,1.92-4.46.57-7.42-1.75ZM500.76,326l-8.63,2.78c-5.34-.07-18,.1-18,.1l-.15-9.57c4.45,2.61,8.36,6.66,8.54,8,1.49-7.07.72-14.19-1.86-17.93-.47-.54-.94-1.06-1.4-1.55a5,5,0,0,0-1.1-.7c-.6.66-2.16.68-4.37-.4l-.05-3.54H474a23.92,23.92,0,0,1,5.34,4.64,7,7,0,0,1,1.4,1.55c3.47,3.95,7.09,9,8.57,13,3.94-2.95,6.75-2.77,11.36-.39A12.38,12.38,0,0,1,500.76,326Z" transform="translate(-403.75 -244.13)"/><path class="cls-1" d="M450.8,244.8c-4.22-.74-5.72-1.16-14.32.32s-11.66.23-11.66.23c5.88,1.45,7.73,1,10.84.61s10-.9,10.87,0-5.57.18-8.55.31-9.07.74-11.23.93c5.25.05,11.21-.56,16.06-.08s7.09.58,7.94.42C450.82,245.75,450.8,244.8,450.8,244.8Z" transform="translate(-403.75 -244.13)"/><path class="cls-1" d="M479.29,307.84c.46.49.93,1,1.4,1.55A7,7,0,0,0,479.29,307.84Z" transform="translate(-403.75 -244.13)"/><path class="cls-1" d="M480.69,309.39c-.47-.54-.94-1.06-1.4-1.55A7,7,0,0,1,480.69,309.39Z" transform="translate(-403.75 -244.13)"/></g></svg>