<?xml version="1.0" encoding="utf-8"?>
<!-- Generator: Adobe Illustrator 25.2.0, SVG Export Plug-In . SVG Version: 6.00 Build 0)  -->
<svg version="1.1" id="Calque_1" xmlns="http://www.w3.org/2000/svg" xmlns:xlink="http://www.w3.org/1999/xlink" x="0px" y="0px"
	 viewBox="0 0 117.1 99.7" style="enable-background:new 0 0 117.1 99.7;" xml:space="preserve">
<style type="text/css">
	.st0{stroke:#8A4018;stroke-miterlimit:10;}
</style>
<g id="Calque_1_1_">
	<path class="st0" d="M24.5,54.6L24.5,54.6z"/>
	<path class="st0" d="M24.5,54.6L24.5,54.6z"/>
	<path class="st0" d="M102.7,81.2l14.4-5.8l-15.7,5l-0.9-0.5l0,0c-1.3-1-22.2-16.7-29.3-20.9h0.5V58H70v-2c4.7,1.8,9.3,4.8,11.9,8.4
		c0.9-2.7,1.2-5.6,0.9-8.5c2.5,2.4,4.6,8.7,5.6,14.5c5.2-1.9,12,0.4,17.5,4.7c-1.1-1.2-5.6-6-10-10c8.5-1.4,12.3,1.5,19.7,8.1
		c-3.3-3.5-30.4-34.9-38.1-41.2l-0.1-0.2l0,0c-0.7-2.7-1.7-5.3-3-7.8c-0.5,1.1-2.4,1.4-4.7,1v-1.7H71v-0.8h-1.5l-0.1-8.9l-0.2,8.9
		h-1.4l-0.1,0.8h1.4v1.6c-1.9-0.4-3.7-1.2-5.2-2.4c0,0-4.4,11.1-4.4,15c0.2-0.4,0.5-0.7,0.9-0.8l-1,4.6c-0.8-3.1-2.6-5.8-5.2-7.7
		c0,0.6-0.4,1.3-1.8,1.2c-1.9-0.5-3.6-1.5-5-2.8v-3.7h1.8v-0.9h-1.8l-0.1-4.9c3.5,1.4,6.5,3.9,8.4,7.1c0.2-2.4,1-14.1-3.5-20.2
		c-0.5,1.8-2.6,2.2-5.1,1.7L47.1,0.8L46.9,11c-1.9-0.4-3.7-1.2-5.3-2.3c0,0-3,9.5-4.9,14.8c3-1.9,6.7-2.3,10-1.2l-0.1,5.1h-1.5
		l0,0.9h1.5l0,2.9c-2.9-2.9-5.3-6.5-8.4-7.2c-2,2.4-5.2,21.1-5.3,21.6l0,0c3,13.6-2.5,36.1-5.3,38c5.8-2.2,11.9-3.6,18.1-4L45.5,87
		h-4.9l-3.2-1.9H26.1l-0.4-33.8h1.8v-1h-1.8l-0.1-6.5c2.7,1.5,5,3.7,6.7,6.2c0.7-4.7-0.8-15-3.7-19.6c-0.8,1-1.9,1.6-3.2,1.5v-2.2
		h1.6v-1h-1.7L25.3,19l-0.2,9.8h-1.7v1h1.7l0,2.2c-2.5-0.1-5-1.1-6.9-2.7c-1.9,4.8-3.5,9.6-4.8,14.5c3.4-2.2,7.8-2.4,11.4-0.5
		l-0.1,6.9h-1.8l0.1,1h1.7l-0.1,3.3l0,0L24,78c-4-5.4-1.3-19.3,0.5-23.4l0,0c-6.6,0.4-12.6-3.4-16.3-10.9c2.1,18-0.6,27.9-6.1,34.2
		c12.7-4,20.7,0.7,21.9,1.5l-0.1,5l-3.7-2.5c0,0-5.3-0.2-20.1-0.1c0.4,3.6,0,7.2,2.2,7.7c5.7,1.5,8.6,3.4,8.5,5.2s-0.4,5.4,3.1,5.2
		s34.1,0.2,62.7-0.2c3-1,4.4-2.1,4.7-5.7c4.8-1.6,8.5-4.5,9.3-7.7l6.2-2.5c-0.5,2.3-1.8,4.4-3.6,5.9c6.4-2.9,10.3-2,14.3,0.9
		c-0.1-1.5-0.1-4.4,0.1-8.2C105.8,82.1,104.2,81.8,102.7,81.2z M46.1,50.6h-1.6v1h1.6v2.1c-4.8-3.4-9.9-7-11.9-8.4
		c3.8-1.8,8.1-1.9,12.1-0.4L46.1,50.6z M47.6,51.6h1.5v-1h-1.5l-0.1-5.2c3.2,1.3,6.2,3.2,8.8,5.4l0,0l0,0l-1.3,5.5l1.5-0.6
		c-0.2,1.6-0.5,3.1-0.9,4.6c-1.3-0.8-4.5-3-8-5.5L47.6,51.6z M67.7,87H48l-0.1-7.5c6.4-0.2,11.6,0.9,12.2,3.9
		c1.3-3.3,2.1-6.8,2.2-10.3c1.9-0.2,3.9,0.1,5.6,1L67.7,87z M68.3,58H67v0.2v0.9h1.3l0,2.5c-2.8-2-5.3-4.3-7.4-7
		c2.6-0.2,5.1,0.1,7.5,0.9L68.3,58z M69,38.9h-1.2V39v0.7H69c0,0.5,0,1,0,1.6c-0.4-0.5-4.1-3.9-6-5.6c4-0.8,6.1,0.6,6.1,0.6L69,38.9
		z M69.7,39.7h1.8v-0.8h-1.8v-2.3c3.3,1.6,6.2,4,8.3,7.1c0.5-3.6,0.3-7.3-0.6-10.9c3.2,4.5,15.2,21.7,16.1,30.2l-12-11.9
		c-1-2.5-2.4-4.7-4.3-6.5c-1.4,1.9-4.5,0.6-7.4-1.8L69.7,39.7z M97,81.9l-8.6,2.8c-5.3-0.1-18,0.1-18,0.1l-0.1-9.6
		c4.5,2.6,8.4,6.7,8.5,8c1.5-7.1,0.7-14.2-1.9-17.9c-0.5-0.5-0.9-1.1-1.4-1.5c-0.3-0.3-0.7-0.5-1.1-0.7c-0.6,0.7-2.2,0.7-4.4-0.4
		l0-3.5h0.3c2,1.3,3.8,2.8,5.3,4.6c0.5,0.4,1,1,1.4,1.5c3.5,4,7.1,9,8.6,13c3.9-3,6.8-2.8,11.4-0.4C97.2,79.2,97.2,80.5,97,81.9z"/>
	<path class="st0" d="M47,0.7C42.8-0.1,41.3-0.5,32.7,1S21.1,1.2,21.1,1.2c5.9,1.4,7.7,1,10.8,0.6s10-0.9,10.9,0S37.2,2,34.2,2.1
		S25.2,2.9,23,3.1C28.2,3.1,34.2,2.5,39.1,3s7.1,0.6,7.9,0.4C47.1,1.6,47,0.7,47,0.7z"/>
	<path class="st0" d="M75.5,63.7c0.5,0.5,0.9,1,1.4,1.5C76.6,64.7,76.1,64.2,75.5,63.7z"/>
	<path class="st0" d="M76.9,65.3c-0.5-0.5-0.9-1.1-1.4-1.5C76.1,64.2,76.6,64.7,76.9,65.3z"/>
</g>
</svg>
