<svg xmlns="http://www.w3.org/2000/svg" viewBox="0 0 117.08 99.73"><defs><style>.cls-1{fill:#964d16;}</style></defs><title>bateau_gauche</title><g id="Calque_1" data-name="Calque 1"><path class="cls-1" d="M496.33,298.7h0Z" transform="translate(-403.75 -244.13)"/><path class="cls-1" d="M496.33,298.7h0Z" transform="translate(-403.75 -244.13)"/><path class="cls-1" d="M413.39,326.44a78.54,78.54,0,0,1,.07,8.16c3.94-2.88,7.88-3.83,14.28-.92a10.23,10.23,0,0,1-3.61-5.91l6.17,2.49c.83,3.15,4.51,6.1,9.32,7.68.32,3.58,1.79,4.74,4.74,5.69,28.59.43,59.18,0,62.66.21s3.16-3.37,3.06-5.16,2.85-3.7,8.54-5.17c2.22-.53,1.8-4.12,2.22-7.7-14.87-.11-20.15.1-20.15.1L497,328.44l-.11-4.95c1.18-.78,9.16-5.53,21.85-1.52-5.48-6.25-8.23-16.17-6.11-34.17-3.73,7.52-9.7,11.25-16.31,10.9h0c1.85,4.12,4.49,18,.54,23.41l-.54-23.41h0l-.08-3.31H498l.07-1h-1.81l-.16-6.9a11.32,11.32,0,0,1,11.43.5,141.47,141.47,0,0,0-4.78-14.56,11.6,11.6,0,0,1-6.91,2.69l-.05-2.19h1.69v-1h-1.71l-.23-9.81L495.4,273h-1.67v1h1.66l0,2.18a3.94,3.94,0,0,1-3.18-1.55c-2.88,4.57-4.36,14.91-3.65,19.62a19.37,19.37,0,0,1,6.68-6.25l-.08,6.46h-1.79v1h1.78l-.42,33.79H483.39l-3.16,1.9h-4.88l-.13-7.43a61.22,61.22,0,0,1,18.09,4c-2.82-1.9-8.3-24.4-5.35-38v0c-.1-.58-3.27-19.25-5.27-21.64-3,.67-5.43,4.25-8.35,7.16l0-2.87h1.49s0-.86,0-.88h-1.46l-.09-5.14a11.91,11.91,0,0,1,10,1.19c-1.9-5.23-4.91-14.77-4.91-14.77A15.35,15.35,0,0,1,474,255l-.18-10.2-.12,10.26c-2.47.48-4.6.06-5.05-1.72-4.48,6.07-3.7,17.83-3.49,20.2a17,17,0,0,1,8.42-7.08l-.05,4.92h-1.76v.88h1.74l0,3.71a11.21,11.21,0,0,1-5,2.83c-1.41.14-1.76-.56-1.76-1.2a14.28,14.28,0,0,0-5.21,7.74l-1-4.57a1.79,1.79,0,0,1,.91.84c0-3.86-4.43-15-4.43-15a13.38,13.38,0,0,1-5.23,2.35l0-1.62h1.42l-.07-.78h-1.37l-.19-8.91-.14,8.91H450v.78h1.43l0,1.71c-2.24.4-4.18.14-4.67-1a34.05,34.05,0,0,0-3,7.79l-.06,0-.11.21c-7.75,6.38-34.81,37.76-38.13,41.24,7.33-6.6,11.18-9.44,19.67-8.07-4.38,4.06-8.91,8.81-10,10,5.43-4.32,12.29-6.59,17.45-4.7,1-5.81,3.13-12.17,5.58-14.54a19,19,0,0,0,.89,8.46c2.54-3.6,7.16-6.66,11.86-8.41l0,2h-1.71v1.09h.54c-7.17,4.18-28,19.88-29.33,20.87h0l-.87.55-15.71-5.05,14.39,5.79A21.15,21.15,0,0,1,413.39,326.44Zm61.2-37.38a15.58,15.58,0,0,1,12.07.42c-2,1.42-7.11,5-11.91,8.4l0-2.13h1.6s-.06-1-.06-1H474.7ZM473.21,299c-3.57,2.48-6.74,4.67-8,5.5a26.92,26.92,0,0,1-.91-4.58l1.47.64L464.47,295h0v0a32,32,0,0,1,8.83-5.44l-.06,5.23h-1.46v1h1.45Zm-20.33,19.19a10.34,10.34,0,0,1,5.62-1,29.45,29.45,0,0,0,2.18,10.34c.61-3,5.85-4.12,12.26-3.93l-.09,7.55H453.17Zm-.41-18.56a18.71,18.71,0,0,1,7.56-.92,35.45,35.45,0,0,1-7.42,7l-.06-2.48h1.26v-.86l.05-.23h-1.33Zm-.72-19.22s2.08-1.4,6.08-.6c-1.9,1.69-5.59,5.14-6,5.6,0-.6,0-1.12,0-1.59H453v-.67l0-.17h-1.23Zm-.67,6.58c-3,2.32-6,3.67-7.42,1.75a18.15,18.15,0,0,0-4.3,6.5l-12,11.88c.9-8.48,12.83-25.68,16.07-30.22a29.29,29.29,0,0,0-.57,10.86,20.47,20.47,0,0,1,8.29-7.06l0,2.28h-1.78v.84h1.77ZM424,322c4.6-2.38,7.42-2.56,11.35.39,1.49-4,5.11-9.06,8.57-13a6.83,6.83,0,0,1,1.41-1.55,23.93,23.93,0,0,1,5.33-4.64h.19l-.06,3.54c-2.21,1.08-3.77,1.06-4.36.4a4.76,4.76,0,0,0-1.1.7c-.47.49-.94,1-1.41,1.55-2.58,3.74-3.34,10.86-1.85,17.93.17-1.31,4.09-5.36,8.53-8l-.15,9.57s-12.63-.17-18-.1L423.83,326A12.35,12.35,0,0,1,424,322Z" transform="translate(-403.75 -244.13)"/><path class="cls-1" d="M473.8,244.8c4.21-.74,5.72-1.16,14.31.32s11.66.23,11.66.23c-5.88,1.45-7.73,1-10.84.61s-10-.9-10.86,0,5.56.18,8.54.31,9.07.74,11.23.93c-5.24.05-11.2-.56-16.06-.08s-7.09.58-7.93.42C473.77,245.75,473.8,244.8,473.8,244.8Z" transform="translate(-403.75 -244.13)"/><path class="cls-1" d="M443.9,309.39c.47-.54.94-1.06,1.41-1.55A6.83,6.83,0,0,0,443.9,309.39Z" transform="translate(-403.75 -244.13)"/><path class="cls-1" d="M443.9,309.39c.47-.54.94-1.06,1.41-1.55A6.83,6.83,0,0,0,443.9,309.39Z" transform="translate(-403.75 -244.13)"/></g></svg>