<?xml version="1.0" encoding="utf-8"?>
<!-- Generator: Adobe Illustrator 25.2.0, SVG Export Plug-In . SVG Version: 6.00 Build 0)  -->
<svg version="1.1" id="Calque_1" xmlns="http://www.w3.org/2000/svg" xmlns:xlink="http://www.w3.org/1999/xlink" x="0px" y="0px"
	 viewBox="0 0 30.5 34.3" style="enable-background:new 0 0 30.5 34.3;" xml:space="preserve">
<style type="text/css">
	.st0{stroke:#8A4018;stroke-width:5;stroke-linejoin:round;}
	.st1{fill:none;stroke:#8A4018;stroke-width:5;stroke-linejoin:round;}
	.st2{fill:#BF7529;}
	.st3{fill:none;}
</style>
<g id="Calque_2_1_">
	<rect x="5.5" y="29.1" class="st0" width="19.4" height="2.7"/>
	<path class="st0" d="M27.9,12l-3,15.2H5.5L2.5,12c0.2-0.1,0.4-0.1,0.5-0.1h0.1c0.7,0,1.2,0.6,1.2,1.3c0,0.5-0.3,0.9-0.7,1.1
		c1,2.4,2.8,4.1,5,4.1c3.1,0,5.7-3.5,5.7-7.9l0,0l-3.6,1.7c-0.2,0.1-0.4,0.1-0.5,0.1c-1,0-1.8-1.3-1.8-2.9s0.8-2.9,1.8-2.9
		c0.2,0,0.4,0,0.5,0.1l3.4,1.6h0.1L14,8l-1.5-3.1c0,0,0-0.1,0-0.1c-0.1-0.1-0.1-0.3-0.1-0.4c0-1,1.3-1.8,2.9-1.8s2.9,0.8,2.9,1.8
		c0,0.2,0,0.3-0.1,0.4c0,0,0,0.1,0,0.1L16.6,8l-0.2,0.4h0.1L20,6.7c0.2-0.1,0.4-0.1,0.5-0.1c1,0,1.8,1.3,1.8,2.9s-0.8,2.9-1.8,2.9
		c-0.2,0-0.4,0-0.5-0.1l-3.6-1.7l0,0c0,4.3,2.5,7.9,5.7,7.9c2.1,0,4-1.7,5-4.1c-0.6-0.3-0.9-1.1-0.6-1.7c0.2-0.4,0.6-0.7,1.1-0.7
		h0.1C27.7,11.9,27.8,12,27.9,12z"/>
	<line class="st1" x1="5.5" y1="27.2" x2="2.5" y2="12"/>
	<line class="st1" x1="28" y1="12" x2="25" y2="27.2"/>
</g>
<g id="Calque_1_1_">
	<rect x="5.5" y="29.1" class="st2" width="19.4" height="2.7"/>
	<path class="st2" d="M27.9,12l-3,15.2H5.5L2.5,12c0.2-0.1,0.4-0.1,0.5-0.1h0.1c0.7,0,1.2,0.6,1.2,1.3c0,0.5-0.3,0.9-0.7,1.1
		c1,2.4,2.8,4.1,5,4.1c3.1,0,5.7-3.5,5.7-7.9l0,0l-3.6,1.7c-0.2,0.1-0.4,0.1-0.5,0.1c-1,0-1.8-1.3-1.8-2.9s0.8-2.9,1.8-2.9
		c0.2,0,0.4,0,0.5,0.1l3.4,1.6h0.1L14,8l-1.5-3.1c0,0,0-0.1,0-0.1c-0.1-0.1-0.1-0.3-0.1-0.4c0-1,1.3-1.8,2.9-1.8s2.9,0.8,2.9,1.8
		c0,0.2,0,0.3-0.1,0.4c0,0,0,0.1,0,0.1L16.6,8l-0.2,0.4h0.1L20,6.7c0.2-0.1,0.4-0.1,0.5-0.1c1,0,1.8,1.3,1.8,2.9s-0.8,2.9-1.8,2.9
		c-0.2,0-0.4,0-0.5-0.1l-3.6-1.7l0,0c0,4.3,2.5,7.9,5.7,7.9c2.1,0,4-1.7,5-4.1c-0.6-0.3-0.9-1.1-0.6-1.7c0.2-0.4,0.6-0.7,1.1-0.7
		h0.1C27.7,11.9,27.8,12,27.9,12z"/>
	<line class="st3" x1="5.5" y1="27.2" x2="2.5" y2="12"/>
	<line class="st3" x1="28" y1="12" x2="25" y2="27.2"/>
</g>
</svg>
