<svg xmlns="http://www.w3.org/2000/svg" viewBox="0 0 39.16 61.35"><defs><style>.cls-1{fill:none;stroke:#000;stroke-miterlimit:10;stroke-width:5px;}.cls-2{fill:#f9af15;}</style></defs><title>reine_1</title><g id="Calque_2" data-name="Calque 2"><path class="cls-1" d="M432.28,317.33h-.39v-.2Z" transform="translate(-414.42 -268.45)"/><rect class="cls-1" x="17.47" y="20.7" width="4.22" height="24"/><path class="cls-1" d="M435.72,317.33l.39-.2v.2Z" transform="translate(-414.42 -268.45)"/><polygon class="cls-1" points="27.79 52.8 11.37 52.8 10.51 46.6 28.65 46.6 27.79 52.8"/><path class="cls-1" d="M435,291.79,434,293l-.95,1.16a8.42,8.42,0,0,0-1.16-.79c-2.46-1.43-6.05-2.12-8.6-.91-2.24,1.06-3.37,3.42-3.37,7,0,5.83,5.76,10.58,11,13.72h-5.41c-4.59-3.43-8.63-8.06-8.63-13.72a12.94,12.94,0,0,1,1.29-6.06,8.23,8.23,0,0,1,1.85-2.38A8.07,8.07,0,0,1,422,289.7c3.08-1.47,6.86-1,9.89.27a13.18,13.18,0,0,1,2.11,1.12A11.66,11.66,0,0,1,435,291.79Z" transform="translate(-414.42 -268.45)"/><path class="cls-1" d="M436.11,317.13v.2h-.39Z" transform="translate(-414.42 -268.45)"/><path class="cls-1" d="M432.28,317.33h-.39v-.2Z" transform="translate(-414.42 -268.45)"/><path class="cls-1" d="M451.08,299.43c0,5.66-4,10.29-8.63,13.72H437c5.28-3.14,11-7.89,11-13.72,0-3.6-1.13-6-3.37-7-2.55-1.21-6.14-.52-8.6.91a8.42,8.42,0,0,0-1.16.79L434,293l-.95-1.16a11.66,11.66,0,0,1,.95-.7,13.18,13.18,0,0,1,2.11-1.12c3-1.31,6.81-1.74,9.89-.27a7.83,7.83,0,0,1,1.94,1.28,8.28,8.28,0,0,1,1.85,2.39A12.94,12.94,0,0,1,451.08,299.43Z" transform="translate(-414.42 -268.45)"/><circle class="cls-1" cx="19.58" cy="20.7" r="4.34"/><circle class="cls-1" cx="19.58" cy="14.75" r="2.9"/><path class="cls-1" d="M437.47,276A3.68,3.68,0,1,1,434,271.1,5.2,5.2,0,0,1,437.47,276Z" transform="translate(-414.42 -268.45)"/><path class="cls-1" d="M437.47,276A3.68,3.68,0,1,1,434,271.1,5.2,5.2,0,0,1,437.47,276Z" transform="translate(-414.42 -268.45)"/><path class="cls-1" d="M432.75,284.63a2.44,2.44,0,0,1,0,.27,4.33,4.33,0,0,0-7.85,2.23,4.33,4.33,0,1,1,7.86-2.5Z" transform="translate(-414.42 -268.45)"/><path class="cls-1" d="M443.91,284.63a4.3,4.3,0,0,1-.8,2.5,4.33,4.33,0,0,0-7.85-2.23,2.44,2.44,0,0,1,0-.27,4.33,4.33,0,0,1,8.66,0Z" transform="translate(-414.42 -268.45)"/><rect class="cls-1" x="9.67" y="54.49" width="19.82" height="4.36"/></g><g id="Calque_1" data-name="Calque 1"><path class="cls-2" d="M432.28,317.33h-.39v-.2Z" transform="translate(-414.42 -268.45)"/><rect class="cls-2" x="17.47" y="20.7" width="4.22" height="24"/><path class="cls-2" d="M435.72,317.33l.39-.2v.2Z" transform="translate(-414.42 -268.45)"/><polygon class="cls-2" points="27.79 52.8 11.37 52.8 10.51 46.6 28.65 46.6 27.79 52.8"/><path class="cls-2" d="M435,291.79,434,293l-.95,1.16a8.42,8.42,0,0,0-1.16-.79c-2.46-1.43-6.05-2.12-8.6-.91-2.24,1.06-3.37,3.42-3.37,7,0,5.83,5.76,10.58,11,13.72h-5.41c-4.59-3.43-8.63-8.06-8.63-13.72a12.94,12.94,0,0,1,1.29-6.06,8.23,8.23,0,0,1,1.85-2.38A8.07,8.07,0,0,1,422,289.7c3.08-1.47,6.86-1,9.89.27a13.18,13.18,0,0,1,2.11,1.12A11.66,11.66,0,0,1,435,291.79Z" transform="translate(-414.42 -268.45)"/><path class="cls-2" d="M436.11,317.13v.2h-.39Z" transform="translate(-414.42 -268.45)"/><path class="cls-2" d="M432.28,317.33h-.39v-.2Z" transform="translate(-414.42 -268.45)"/><path class="cls-2" d="M451.08,299.43c0,5.66-4,10.29-8.63,13.72H437c5.28-3.14,11-7.89,11-13.72,0-3.6-1.13-6-3.37-7-2.55-1.21-6.14-.52-8.6.91a8.42,8.42,0,0,0-1.16.79L434,293l-.95-1.16a11.66,11.66,0,0,1,.95-.7,13.18,13.18,0,0,1,2.11-1.12c3-1.31,6.81-1.74,9.89-.27a7.83,7.83,0,0,1,1.94,1.28,8.28,8.28,0,0,1,1.85,2.39A12.94,12.94,0,0,1,451.08,299.43Z" transform="translate(-414.42 -268.45)"/><circle class="cls-2" cx="19.58" cy="20.7" r="4.34"/><circle class="cls-2" cx="19.58" cy="14.75" r="2.9"/><path class="cls-2" d="M437.47,276A3.68,3.68,0,1,1,434,271.1,5.2,5.2,0,0,1,437.47,276Z" transform="translate(-414.42 -268.45)"/><path class="cls-2" d="M437.47,276A3.68,3.68,0,1,1,434,271.1,5.2,5.2,0,0,1,437.47,276Z" transform="translate(-414.42 -268.45)"/><path class="cls-2" d="M432.75,284.63a2.44,2.44,0,0,1,0,.27,4.33,4.33,0,0,0-7.85,2.23,4.33,4.33,0,1,1,7.86-2.5Z" transform="translate(-414.42 -268.45)"/><path class="cls-2" d="M443.91,284.63a4.3,4.3,0,0,1-.8,2.5,4.33,4.33,0,0,0-7.85-2.23,2.44,2.44,0,0,1,0-.27,4.33,4.33,0,0,1,8.66,0Z" transform="translate(-414.42 -268.45)"/><rect class="cls-2" x="9.67" y="54.49" width="19.82" height="4.36"/></g></svg>