<?xml version="1.0" encoding="utf-8"?>
<!-- Generator: Adobe Illustrator 25.2.0, SVG Export Plug-In . SVG Version: 6.00 Build 0)  -->
<svg version="1.1" id="Calque_1" xmlns="http://www.w3.org/2000/svg" xmlns:xlink="http://www.w3.org/1999/xlink" x="0px" y="0px"
	 viewBox="0 0 39.2 61.3" style="enable-background:new 0 0 39.2 61.3;" xml:space="preserve">
<style type="text/css">
	.st0{fill:none;stroke:#8A4018;stroke-width:5;stroke-miterlimit:10;}
	.st1{fill:#F9AF15;}
</style>
<g id="Calque_2_1_">
	<path class="st0" d="M17.9,48.9h-0.4v-0.2L17.9,48.9z"/>
	<rect x="17.5" y="20.7" class="st0" width="4.2" height="24"/>
	<path class="st0" d="M21.3,48.9l0.4-0.2v0.2H21.3z"/>
	<polygon class="st0" points="27.8,52.8 11.4,52.8 10.5,46.6 28.6,46.6 	"/>
	<path class="st0" d="M20.6,23.3l-1,1.2l-1,1.2c-0.4-0.3-0.8-0.6-1.2-0.8c-2.5-1.4-6-2.1-8.6-0.9c-2.2,1.1-3.4,3.4-3.4,7
		c0,5.8,5.8,10.6,11,13.7h-5.4C6.5,41.3,2.5,36.7,2.5,31c-0.1-2.1,0.4-4.2,1.3-6.1c0.5-0.9,1.1-1.7,1.9-2.4c0.6-0.5,1.3-1,2-1.3
		c3.1-1.5,6.9-1,9.9,0.3c0.7,0.3,1.4,0.7,2.1,1.1C19.9,22.9,20.3,23.1,20.6,23.3z"/>
	<path class="st0" d="M21.7,48.7v0.2h-0.4L21.7,48.7z"/>
	<path class="st0" d="M17.9,48.9h-0.4v-0.2L17.9,48.9z"/>
	<path class="st0" d="M36.7,31c0,5.7-4,10.3-8.6,13.7h-5.4c5.3-3.1,11-7.9,11-13.7c0-3.6-1.1-6-3.4-7c-2.5-1.2-6.1-0.5-8.6,0.9
		c-0.4,0.2-0.8,0.5-1.2,0.8l-0.9-1.1l-1-1.2c0.3-0.2,0.6-0.5,1-0.7c0.7-0.4,1.4-0.8,2.1-1.1c3-1.3,6.8-1.7,9.9-0.3
		c0.7,0.3,1.4,0.8,1.9,1.3c0.8,0.7,1.4,1.5,1.9,2.4C36.3,26.8,36.7,28.9,36.7,31z"/>
	<circle class="st0" cx="19.6" cy="20.7" r="4.3"/>
	<circle class="st0" cx="19.6" cy="14.8" r="2.9"/>
	<path class="st0" d="M23,7.5c-0.7,1.9-2.8,2.9-4.7,2.3c-1.9-0.7-2.9-2.8-2.3-4.7c0.5-1.5,1.9-2.5,3.5-2.5C21.7,3.4,23,5.3,23,7.5z"
		/>
	<path class="st0" d="M23,7.5c-0.7,1.9-2.8,2.9-4.7,2.3c-1.9-0.7-2.9-2.8-2.3-4.7c0.5-1.5,1.9-2.5,3.5-2.5C21.7,3.4,23,5.3,23,7.5z"
		/>
	<path class="st0" d="M18.3,16.2c0,0.1,0,0.2,0,0.3c-1.4-1.9-4.1-2.4-6-1c-1.1,0.8-1.7,1.9-1.8,3.3c-1.4-1.9-0.9-4.7,1-6
		c1.9-1.4,4.7-0.9,6,1C18.1,14.4,18.3,15.3,18.3,16.2L18.3,16.2z"/>
	<path class="st0" d="M29.5,16.2c0,0.9-0.3,1.8-0.8,2.5c-0.2-2.4-2.2-4.2-4.6-4c-1.3,0.1-2.5,0.7-3.3,1.8c0-0.1,0-0.2,0-0.3
		c0-2.4,1.9-4.3,4.3-4.3C27.6,11.8,29.5,13.8,29.5,16.2L29.5,16.2z"/>
	<rect x="9.7" y="54.5" class="st0" width="19.8" height="4.4"/>
</g>
<g id="Calque_1_1_">
	<path class="st1" d="M17.9,48.9h-0.4v-0.2L17.9,48.9z"/>
	<rect x="17.5" y="20.7" class="st1" width="4.2" height="24"/>
	<path class="st1" d="M21.3,48.9l0.4-0.2v0.2H21.3z"/>
	<polygon class="st1" points="27.8,52.8 11.4,52.8 10.5,46.6 28.6,46.6 	"/>
	<path class="st1" d="M20.6,23.3l-1,1.2l-1,1.2c-0.4-0.3-0.8-0.6-1.2-0.8c-2.5-1.4-6-2.1-8.6-0.9c-2.2,1.1-3.4,3.4-3.4,7
		c0,5.8,5.8,10.6,11,13.7h-5.4C6.5,41.3,2.5,36.7,2.5,31c-0.1-2.1,0.4-4.2,1.3-6.1c0.5-0.9,1.1-1.7,1.9-2.4c0.6-0.5,1.3-1,2-1.3
		c3.1-1.5,6.9-1,9.9,0.3c0.7,0.3,1.4,0.7,2.1,1.1C19.9,22.9,20.3,23.1,20.6,23.3z"/>
	<path class="st1" d="M21.7,48.7v0.2h-0.4L21.7,48.7z"/>
	<path class="st1" d="M17.9,48.9h-0.4v-0.2L17.9,48.9z"/>
	<path class="st1" d="M36.7,31c0,5.7-4,10.3-8.6,13.7h-5.4c5.3-3.1,11-7.9,11-13.7c0-3.6-1.1-6-3.4-7c-2.5-1.2-6.1-0.5-8.6,0.9
		c-0.4,0.2-0.8,0.5-1.2,0.8l-0.9-1.1l-1-1.2c0.3-0.2,0.6-0.5,1-0.7c0.7-0.4,1.4-0.8,2.1-1.1c3-1.3,6.8-1.7,9.9-0.3
		c0.7,0.3,1.4,0.8,1.9,1.3c0.8,0.7,1.4,1.5,1.9,2.4C36.3,26.8,36.7,28.9,36.7,31z"/>
	<circle class="st1" cx="19.6" cy="20.7" r="4.3"/>
	<circle class="st1" cx="19.6" cy="14.8" r="2.9"/>
	<path class="st1" d="M23,7.5c-0.7,1.9-2.8,2.9-4.7,2.3c-1.9-0.7-2.9-2.8-2.3-4.7c0.5-1.5,1.9-2.5,3.5-2.5C21.7,3.4,23,5.3,23,7.5z"
		/>
	<path class="st1" d="M23,7.5c-0.7,1.9-2.8,2.9-4.7,2.3c-1.9-0.7-2.9-2.8-2.3-4.7c0.5-1.5,1.9-2.5,3.5-2.5C21.7,3.4,23,5.3,23,7.5z"
		/>
	<path class="st1" d="M18.3,16.2c0,0.1,0,0.2,0,0.3c-1.4-1.9-4.1-2.4-6-1c-1.1,0.8-1.7,1.9-1.8,3.3c-1.4-1.9-0.9-4.7,1-6
		c1.9-1.4,4.7-0.9,6,1C18.1,14.4,18.3,15.3,18.3,16.2L18.3,16.2z"/>
	<path class="st1" d="M29.5,16.2c0,0.9-0.3,1.8-0.8,2.5c-0.2-2.4-2.2-4.2-4.6-4c-1.3,0.1-2.5,0.7-3.3,1.8c0-0.1,0-0.2,0-0.3
		c0-2.4,1.9-4.3,4.3-4.3C27.6,11.8,29.5,13.8,29.5,16.2L29.5,16.2z"/>
	<rect x="9.7" y="54.5" class="st1" width="19.8" height="4.4"/>
</g>
</svg>
