<svg xmlns="http://www.w3.org/2000/svg" viewBox="0 0 38.89 41.52"><defs><style>.cls-1{stroke:#000;stroke-miterlimit:10;stroke-width:5px;}.cls-2{fill:#bebebe;}</style></defs><title>reine_2</title><g id="Calque_2" data-name="Calque 2"><rect class="cls-1" x="10.69" y="34.89" width="17.5" height="4.13"/><path class="cls-1" d="M419.59,285.57l5.49,6.62c-4.79,6.82,8.63,6.78,3.66,0l5.26-8.38,5.25,8.38c-5,6.78,8.45,6.82,3.66,0l5.49-6.62-5.63,22.83H425.22Z" transform="translate(-414.55 -275.58)"/></g><g id="Calque_1" data-name="Calque 1"><rect class="cls-2" x="10.69" y="34.89" width="17.5" height="4.13"/><path class="cls-2" d="M419.59,285.57l5.49,6.62c-4.79,6.82,8.63,6.78,3.66,0l5.26-8.38,5.25,8.38c-5,6.78,8.45,6.82,3.66,0l5.49-6.62-5.63,22.83H425.22Z" transform="translate(-414.55 -275.58)"/></g></svg>