<?xml version="1.0" encoding="utf-8"?>
<!-- Generator: Adobe Illustrator 25.2.0, SVG Export Plug-In . SVG Version: 6.00 Build 0)  -->
<svg version="1.1" id="Calque_1" xmlns="http://www.w3.org/2000/svg" xmlns:xlink="http://www.w3.org/1999/xlink" x="0px" y="0px"
	 viewBox="0 0 38.9 41.5" style="enable-background:new 0 0 38.9 41.5;" xml:space="preserve">
<style type="text/css">
	.st0{stroke:#8A4018;stroke-width:5;stroke-miterlimit:10;}
	.st1{fill:#BEBEBE;}
</style>
<g id="Calque_2_1_">
	<rect x="10.7" y="34.9" class="st0" width="17.5" height="4.1"/>
	<path class="st0" d="M5,10l5.5,6.6c-4.8,6.8,8.6,6.8,3.7,0l5.3-8.4l5.2,8.4c-5,6.8,8.5,6.8,3.7,0l5.5-6.6l-5.6,22.8H10.7L5,10z"/>
</g>
<g id="Calque_1_1_">
	<rect x="10.7" y="34.9" class="st1" width="17.5" height="4.1"/>
	<path class="st1" d="M5,10l5.5,6.6c-4.8,6.8,8.6,6.8,3.7,0l5.3-8.4l5.2,8.4c-5,6.8,8.5,6.8,3.7,0l5.5-6.6l-5.6,22.8H10.7L5,10z"/>
</g>
</svg>
