<svg xmlns="http://www.w3.org/2000/svg" viewBox="0 0 30.48 34.33"><defs><style>.cls-1{stroke:#000;stroke-linejoin:round;stroke-width:5px;}.cls-2{fill:#bf7529;}</style></defs><title>reine_3</title><g id="Calque_2" data-name="Calque 2"><rect class="cls-1" x="5.52" y="29.11" width="19.43" height="2.72"/><path class="cls-1" d="M459,299.3l-3,15.16H436.58l-3-15.16a1.12,1.12,0,0,1,.55-.14h.07a1.25,1.25,0,0,1,.52,2.37c1,2.44,2.83,4.1,5,4.1,3.13,0,5.66-3.52,5.66-7.86h0l-3.62,1.69a1.13,1.13,0,0,1-.54.13c-1,0-1.83-1.28-1.83-2.86s.82-2.86,1.83-2.86a1.13,1.13,0,0,1,.54.13l3.4,1.59.09,0-.16-.35-1.47-3.14a.42.42,0,0,1,0-.1,1.12,1.12,0,0,1-.09-.44c0-1,1.28-1.83,2.86-1.83s2.86.82,2.86,1.83a1.12,1.12,0,0,1-.09.44.42.42,0,0,1,0,.1l-1.47,3.14-.16.35.09,0,3.4-1.59a1.13,1.13,0,0,1,.54-.13c1,0,1.83,1.28,1.83,2.86s-.82,2.86-1.83,2.86a1.13,1.13,0,0,1-.54-.13l-3.62-1.69h0c0,4.34,2.53,7.86,5.66,7.86,2.14,0,4-1.66,5-4.1a1.25,1.25,0,0,1,.52-2.37h.07A1.12,1.12,0,0,1,459,299.3Z" transform="translate(-431.06 -287.27)"/><line class="cls-1" x1="5.52" y1="27.19" x2="2.5" y2="12.03"/><line class="cls-1" x1="27.98" y1="12.03" x2="24.95" y2="27.19"/></g><g id="Calque_1" data-name="Calque 1"><rect class="cls-2" x="5.52" y="29.11" width="19.43" height="2.72"/><path class="cls-2" d="M459,299.3l-3,15.16H436.58l-3-15.16a1.12,1.12,0,0,1,.55-.14h.07a1.25,1.25,0,0,1,.52,2.37c1,2.44,2.83,4.1,5,4.1,3.13,0,5.66-3.52,5.66-7.86h0l-3.62,1.69a1.13,1.13,0,0,1-.54.13c-1,0-1.83-1.28-1.83-2.86s.82-2.86,1.83-2.86a1.13,1.13,0,0,1,.54.13l3.4,1.59.09,0-.16-.35-1.47-3.14a.42.42,0,0,1,0-.1,1.12,1.12,0,0,1-.09-.44c0-1,1.28-1.83,2.86-1.83s2.86.82,2.86,1.83a1.12,1.12,0,0,1-.09.44.42.42,0,0,1,0,.1l-1.47,3.14-.16.35.09,0,3.4-1.59a1.13,1.13,0,0,1,.54-.13c1,0,1.83,1.28,1.83,2.86s-.82,2.86-1.83,2.86a1.13,1.13,0,0,1-.54-.13l-3.62-1.69h0c0,4.34,2.53,7.86,5.66,7.86,2.14,0,4-1.66,5-4.1a1.25,1.25,0,0,1,.52-2.37h.07A1.12,1.12,0,0,1,459,299.3Z" transform="translate(-431.06 -287.27)"/><line class="cls-2" x1="5.52" y1="27.19" x2="2.5" y2="12.03"/><line class="cls-2" x1="27.98" y1="12.03" x2="24.95" y2="27.19"/></g></svg>