<svg xmlns="http://www.w3.org/2000/svg" viewBox="0 0 66.68 61.35"><defs><style>.cls-1{fill:none;stroke:#000;stroke-miterlimit:10;stroke-width:5px;}.cls-2{fill:#f9af15;}</style></defs><title>roi_1</title><g id="Calque_2" data-name="Calque 2"><path class="cls-1" d="M418.78,315.63h-.39v-.2Z" transform="translate(-387.16 -266.75)"/><rect class="cls-1" x="31.23" y="20.7" width="4.22" height="24"/><path class="cls-1" d="M422.22,315.63l.39-.2v.2Z" transform="translate(-387.16 -266.75)"/><polygon class="cls-1" points="52.35 52.8 14.33 52.8 12.33 46.6 54.35 46.6 52.35 52.8"/><path class="cls-1" d="M421.45,290.09l-.95,1.16-.95,1.16a8.42,8.42,0,0,0-1.16-.79c-2.46-1.43-6.05-2.12-8.6-.91-2.24,1.06-3.37,3.42-3.37,7,0,5.83,5.76,10.58,11,13.72h-5.41c-4.59-3.43-8.63-8.06-8.63-13.72a12.94,12.94,0,0,1,1.29-6.06,8.23,8.23,0,0,1,1.85-2.38A8.07,8.07,0,0,1,408.5,288c3.08-1.47,6.86-1,9.89.27a13.18,13.18,0,0,1,2.11,1.12A11.66,11.66,0,0,1,421.45,290.09Z" transform="translate(-387.16 -266.75)"/><path class="cls-1" d="M422.61,315.43v.2h-.39Z" transform="translate(-387.16 -266.75)"/><path class="cls-1" d="M407.68,290.09l-1.89,2.32a9.75,9.75,0,0,0-1.08-.74c-2.47-1.46-6.1-2.19-8.68-1-2.24,1.06-3.37,3.42-3.37,7,0,5.83,5.76,10.58,11,13.72h-5.41c-4.59-3.43-8.63-8.06-8.63-13.72,0-6.05,2.76-8.63,5.08-9.73,3.79-1.8,8.62-.75,11.82,1.29A10.66,10.66,0,0,1,407.68,290.09Z" transform="translate(-387.16 -266.75)"/><path class="cls-1" d="M418.78,315.63h-.39v-.2Z" transform="translate(-387.16 -266.75)"/><path class="cls-1" d="M437.58,297.73c0,5.66-4,10.29-8.63,13.72h-5.41c5.28-3.14,11-7.89,11-13.72,0-3.6-1.13-6-3.37-7-2.55-1.21-6.14-.52-8.6.91a8.42,8.42,0,0,0-1.16.79l-.95-1.16-.95-1.16a11.66,11.66,0,0,1,.95-.7,13.18,13.18,0,0,1,2.11-1.12c3-1.31,6.81-1.74,9.89-.27a7.83,7.83,0,0,1,1.94,1.28,8.28,8.28,0,0,1,1.85,2.39A12.94,12.94,0,0,1,437.58,297.73Z" transform="translate(-387.16 -266.75)"/><path class="cls-1" d="M451.34,297.73c0,5.66-4,10.29-8.63,13.72H437.3c5.28-3.14,11-7.89,11-13.72,0-3.6-1.13-6-3.37-7-2.58-1.23-6.21-.5-8.68,1a9.75,9.75,0,0,0-1.08.74l-1.89-2.32a12.4,12.4,0,0,1,1.12-.81c3.2-2,8-3.08,11.82-1.28C448.58,289.1,451.34,291.68,451.34,297.73Z" transform="translate(-387.16 -266.75)"/><circle class="cls-1" cx="33.34" cy="20.7" r="4.34"/><circle class="cls-1" cx="33.34" cy="14.75" r="2.9"/><path class="cls-1" d="M424,274.31a3.68,3.68,0,1,1-3.47-4.91A5.2,5.2,0,0,1,424,274.31Z" transform="translate(-387.16 -266.75)"/><path class="cls-1" d="M424,274.31a3.68,3.68,0,1,1-3.47-4.91A5.2,5.2,0,0,1,424,274.31Z" transform="translate(-387.16 -266.75)"/><path class="cls-1" d="M419.25,282.93a2.44,2.44,0,0,1,0,.27,4.33,4.33,0,0,0-7.85,2.23,4.33,4.33,0,1,1,7.86-2.5Z" transform="translate(-387.16 -266.75)"/><path class="cls-1" d="M430.41,282.93a4.3,4.3,0,0,1-.8,2.5,4.33,4.33,0,0,0-7.85-2.23,2.44,2.44,0,0,1,0-.27,4.33,4.33,0,0,1,8.66,0Z" transform="translate(-387.16 -266.75)"/><rect class="cls-1" x="10.39" y="54.49" width="45.89" height="4.36"/></g><g id="Calque_1" data-name="Calque 1"><path class="cls-2" d="M418.78,315.63h-.39v-.2Z" transform="translate(-387.16 -266.75)"/><rect class="cls-2" x="31.23" y="20.7" width="4.22" height="24"/><path class="cls-2" d="M422.22,315.63l.39-.2v.2Z" transform="translate(-387.16 -266.75)"/><polygon class="cls-2" points="52.35 52.8 14.33 52.8 12.33 46.6 54.35 46.6 52.35 52.8"/><path class="cls-2" d="M421.45,290.09l-.95,1.16-.95,1.16a8.42,8.42,0,0,0-1.16-.79c-2.46-1.43-6.05-2.12-8.6-.91-2.24,1.06-3.37,3.42-3.37,7,0,5.83,5.76,10.58,11,13.72h-5.41c-4.59-3.43-8.63-8.06-8.63-13.72a12.94,12.94,0,0,1,1.29-6.06,8.23,8.23,0,0,1,1.85-2.38A8.07,8.07,0,0,1,408.5,288c3.08-1.47,6.86-1,9.89.27a13.18,13.18,0,0,1,2.11,1.12A11.66,11.66,0,0,1,421.45,290.09Z" transform="translate(-387.16 -266.75)"/><path class="cls-2" d="M422.61,315.43v.2h-.39Z" transform="translate(-387.16 -266.75)"/><path class="cls-2" d="M407.68,290.09l-1.89,2.32a9.75,9.75,0,0,0-1.08-.74c-2.47-1.46-6.1-2.19-8.68-1-2.24,1.06-3.37,3.42-3.37,7,0,5.83,5.76,10.58,11,13.72h-5.41c-4.59-3.43-8.63-8.06-8.63-13.72,0-6.05,2.76-8.63,5.08-9.73,3.79-1.8,8.62-.75,11.82,1.29A10.66,10.66,0,0,1,407.68,290.09Z" transform="translate(-387.16 -266.75)"/><path class="cls-2" d="M418.78,315.63h-.39v-.2Z" transform="translate(-387.16 -266.75)"/><path class="cls-2" d="M437.58,297.73c0,5.66-4,10.29-8.63,13.72h-5.41c5.28-3.14,11-7.89,11-13.72,0-3.6-1.13-6-3.37-7-2.55-1.21-6.14-.52-8.6.91a8.42,8.42,0,0,0-1.16.79l-.95-1.16-.95-1.16a11.66,11.66,0,0,1,.95-.7,13.18,13.18,0,0,1,2.11-1.12c3-1.31,6.81-1.74,9.89-.27a7.83,7.83,0,0,1,1.94,1.28,8.28,8.28,0,0,1,1.85,2.39A12.94,12.94,0,0,1,437.58,297.73Z" transform="translate(-387.16 -266.75)"/><path class="cls-2" d="M451.34,297.73c0,5.66-4,10.29-8.63,13.72H437.3c5.28-3.14,11-7.89,11-13.72,0-3.6-1.13-6-3.37-7-2.58-1.23-6.21-.5-8.68,1a9.75,9.75,0,0,0-1.08.74l-1.89-2.32a12.4,12.4,0,0,1,1.12-.81c3.2-2,8-3.08,11.82-1.28C448.58,289.1,451.34,291.68,451.34,297.73Z" transform="translate(-387.16 -266.75)"/><circle class="cls-2" cx="33.34" cy="20.7" r="4.34"/><circle class="cls-2" cx="33.34" cy="14.75" r="2.9"/><path class="cls-2" d="M424,274.31a3.68,3.68,0,1,1-3.47-4.91A5.2,5.2,0,0,1,424,274.31Z" transform="translate(-387.16 -266.75)"/><path class="cls-2" d="M424,274.31a3.68,3.68,0,1,1-3.47-4.91A5.2,5.2,0,0,1,424,274.31Z" transform="translate(-387.16 -266.75)"/><path class="cls-2" d="M419.25,282.93a2.44,2.44,0,0,1,0,.27,4.33,4.33,0,0,0-7.85,2.23,4.33,4.33,0,1,1,7.86-2.5Z" transform="translate(-387.16 -266.75)"/><path class="cls-2" d="M430.41,282.93a4.3,4.3,0,0,1-.8,2.5,4.33,4.33,0,0,0-7.85-2.23,2.44,2.44,0,0,1,0-.27,4.33,4.33,0,0,1,8.66,0Z" transform="translate(-387.16 -266.75)"/><rect class="cls-2" x="10.39" y="54.49" width="45.89" height="4.36"/></g></svg>