<?xml version="1.0" encoding="utf-8"?>
<!-- Generator: Adobe Illustrator 25.2.0, SVG Export Plug-In . SVG Version: 6.00 Build 0)  -->
<svg version="1.1" id="Calque_1" xmlns="http://www.w3.org/2000/svg" xmlns:xlink="http://www.w3.org/1999/xlink" x="0px" y="0px"
	 viewBox="0 0 62.5 38" style="enable-background:new 0 0 62.5 38;" xml:space="preserve">
<style type="text/css">
	.st0{fill:none;stroke:#8A4018;stroke-width:5;stroke-miterlimit:10;}
	.st1{fill:#BEBEBE;}
</style>
<g id="Calque_2_1_">
	<rect x="8.4" y="31.4" class="st0" width="45.8" height="4.1"/>
	<path class="st0" d="M58.2,9.3l-4.5,20H8.8l-4.5-20l5.7,5.6c-2.7,7.8,9.3,3.8,3.5-1.1l3.4-7.4l5.5,6.6c-4.8,6.8,8.6,6.8,3.7,0
		l5.3-8.4l5.2,8.4c-5,6.8,8.5,6.8,3.7,0l5.5-6.6l3.4,7.4c-5.8,4.8,6.1,8.9,3.5,1.1L58.2,9.3z"/>
</g>
<g id="Calque_1_1_">
	<rect x="8.4" y="31.4" class="st1" width="45.8" height="4.1"/>
	<path class="st1" d="M58.2,9.3l-4.5,20H8.8l-4.5-20l5.7,5.6c-2.7,7.8,9.3,3.8,3.5-1.1l3.4-7.4l5.5,6.6c-4.8,6.8,8.6,6.8,3.7,0
		l5.3-8.4l5.2,8.4c-5,6.8,8.5,6.8,3.7,0l5.5-6.6l3.4,7.4c-5.8,4.8,6.1,8.9,3.5,1.1L58.2,9.3z"/>
</g>
</svg>
