<svg xmlns="http://www.w3.org/2000/svg" viewBox="0 0 62.49 37.99"><defs><style>.cls-1{fill:none;stroke:#000;stroke-miterlimit:10;stroke-width:5px;}.cls-2{fill:#bebebe;}</style></defs><title>roi_2</title><g id="Calque_2" data-name="Calque 2"><rect class="cls-1" x="8.35" y="31.36" width="45.8" height="4.13"/><path class="cls-1" d="M460.93,288.38l-4.5,20H411.56l-4.5-20,5.7,5.64c-2.68,7.79,9.27,3.77,3.45-1.06l3.38-7.39,5.49,6.62c-4.79,6.82,8.63,6.78,3.66,0l5.26-8.38,5.25,8.38c-5,6.78,8.45,6.82,3.66,0l5.49-6.62,3.38,7.39c-5.82,4.83,6.13,8.85,3.45,1.06Z" transform="translate(-402.75 -279.1)"/></g><g id="Calque_1" data-name="Calque 1"><rect class="cls-2" x="8.35" y="31.36" width="45.8" height="4.13"/><path class="cls-2" d="M460.93,288.38l-4.5,20H411.56l-4.5-20,5.7,5.64c-2.68,7.79,9.27,3.77,3.45-1.06l3.38-7.39,5.49,6.62c-4.79,6.82,8.63,6.78,3.66,0l5.26-8.38,5.25,8.38c-5,6.78,8.45,6.82,3.66,0l5.49-6.62,3.38,7.39c-5.82,4.83,6.13,8.85,3.45,1.06Z" transform="translate(-402.75 -279.1)"/></g></svg>