<?xml version="1.0" encoding="utf-8"?>
<!-- Generator: Adobe Illustrator 25.2.0, SVG Export Plug-In . SVG Version: 6.00 Build 0)  -->
<svg version="1.1" id="Calque_1" xmlns="http://www.w3.org/2000/svg" xmlns:xlink="http://www.w3.org/1999/xlink" x="0px" y="0px"
	 viewBox="0 0 66.7 61.3" style="enable-background:new 0 0 66.7 61.3;" xml:space="preserve">
<style type="text/css">
	.st0{fill:none;stroke:#8A4018;stroke-width:5;stroke-miterlimit:10;}
	.st1{fill:#F9AF15;}
</style>
<g id="Calque_2_1_">
	<path class="st0" d="M31.6,48.9h-0.4v-0.2L31.6,48.9z"/>
	<rect x="31.2" y="20.7" class="st0" width="4.2" height="24"/>
	<path class="st0" d="M35.1,48.9l0.4-0.2v0.2H35.1z"/>
	<polygon class="st0" points="52.3,52.8 14.3,52.8 12.3,46.6 54.3,46.6 	"/>
	<path class="st0" d="M34.3,23.3l-1,1.2l-1,1.2c-0.4-0.3-0.8-0.6-1.2-0.8c-2.5-1.4-6-2.1-8.6-0.9c-2.2,1.1-3.4,3.4-3.4,7
		c0,5.8,5.8,10.6,11,13.7h-5.4c-4.6-3.4-8.6-8.1-8.6-13.7c-0.1-2.1,0.4-4.2,1.3-6.1c0.5-0.9,1.1-1.7,1.9-2.4c0.6-0.5,1.3-0.9,2-1.3
		c3.1-1.5,6.9-1,9.9,0.3c0.7,0.3,1.4,0.7,2.1,1.1C33.7,22.9,34,23.1,34.3,23.3z"/>
	<path class="st0" d="M35.4,48.7v0.2h-0.4L35.4,48.7z"/>
	<path class="st0" d="M20.5,23.3l-1.9,2.3c-0.3-0.3-0.7-0.5-1.1-0.7c-2.5-1.5-6.1-2.2-8.7-1c-2.2,1.1-3.4,3.4-3.4,7
		c0,5.8,5.8,10.6,11,13.7h-5.4c-4.6-3.4-8.6-8.1-8.6-13.7c0-6,2.8-8.6,5.1-9.7c3.8-1.8,8.6-0.8,11.8,1.3
		C19.8,22.7,20.2,23,20.5,23.3z"/>
	<path class="st0" d="M31.6,48.9h-0.4v-0.2L31.6,48.9z"/>
	<path class="st0" d="M50.4,31c0,5.7-4,10.3-8.6,13.7h-5.4c5.3-3.1,11-7.9,11-13.7c0-3.6-1.1-6-3.4-7c-2.5-1.2-6.1-0.5-8.6,0.9
		c-0.4,0.2-0.8,0.5-1.2,0.8l-1-1.2l-1-1.2c0.3-0.2,0.6-0.5,1-0.7c0.7-0.4,1.4-0.8,2.1-1.1c3-1.3,6.8-1.7,9.9-0.3
		c0.7,0.3,1.4,0.8,1.9,1.3c0.8,0.7,1.4,1.5,1.9,2.4C50,26.8,50.5,28.9,50.4,31z"/>
	<path class="st0" d="M64.2,31c0,5.7-4,10.3-8.6,13.7h-5.4c5.3-3.1,11-7.9,11-13.7c0-3.6-1.1-6-3.4-7c-2.6-1.2-6.2-0.5-8.7,1
		c-0.4,0.2-0.7,0.5-1.1,0.7l-1.9-2.3c0.4-0.3,0.7-0.6,1.1-0.8c3.2-2,8-3.1,11.8-1.3C61.4,22.4,64.2,24.9,64.2,31z"/>
	<circle class="st0" cx="33.3" cy="20.7" r="4.3"/>
	<circle class="st0" cx="33.3" cy="14.8" r="2.9"/>
	<path class="st0" d="M36.8,7.6c-0.7,1.9-2.8,2.9-4.7,2.2c-1.9-0.7-2.9-2.8-2.2-4.7c0.5-1.5,1.9-2.4,3.5-2.4
		C35.5,3.4,36.8,5.4,36.8,7.6z"/>
	<path class="st0" d="M36.8,7.6c-0.7,1.9-2.8,2.9-4.7,2.2c-1.9-0.7-2.9-2.8-2.2-4.7c0.5-1.5,1.9-2.4,3.5-2.4
		C35.5,3.4,36.8,5.4,36.8,7.6z"/>
	<path class="st0" d="M32.1,16.2c0,0.1,0,0.2,0,0.3c-1.4-1.9-4.1-2.4-6-1c-1.1,0.8-1.7,1.9-1.8,3.3c-1.4-1.9-0.9-4.7,1-6
		c1.9-1.4,4.7-0.9,6,1C31.8,14.4,32.1,15.3,32.1,16.2L32.1,16.2z"/>
	<path class="st0" d="M43.2,16.2c0,0.9-0.3,1.8-0.8,2.5c-0.2-2.4-2.2-4.2-4.6-4c-1.3,0.1-2.5,0.7-3.3,1.8c0-0.1,0-0.2,0-0.3
		c0-2.4,1.9-4.3,4.3-4.3C41.3,11.8,43.3,13.8,43.2,16.2L43.2,16.2z"/>
	<rect x="10.4" y="54.5" class="st0" width="45.9" height="4.4"/>
</g>
<g id="Calque_1_1_">
	<path class="st1" d="M31.6,48.9h-0.4v-0.2L31.6,48.9z"/>
	<rect x="31.2" y="20.7" class="st1" width="4.2" height="24"/>
	<path class="st1" d="M35.1,48.9l0.4-0.2v0.2H35.1z"/>
	<polygon class="st1" points="52.3,52.8 14.3,52.8 12.3,46.6 54.3,46.6 	"/>
	<path class="st1" d="M34.3,23.3l-1,1.2l-1,1.2c-0.4-0.3-0.8-0.6-1.2-0.8c-2.5-1.4-6-2.1-8.6-0.9c-2.2,1.1-3.4,3.4-3.4,7
		c0,5.8,5.8,10.6,11,13.7h-5.4c-4.6-3.4-8.6-8.1-8.6-13.7c-0.1-2.1,0.4-4.2,1.3-6.1c0.5-0.9,1.1-1.7,1.9-2.4c0.6-0.5,1.3-0.9,2-1.3
		c3.1-1.5,6.9-1,9.9,0.3c0.7,0.3,1.4,0.7,2.1,1.1C33.7,22.9,34,23.1,34.3,23.3z"/>
	<path class="st1" d="M35.4,48.7v0.2h-0.4L35.4,48.7z"/>
	<path class="st1" d="M20.5,23.3l-1.9,2.3c-0.3-0.3-0.7-0.5-1.1-0.7c-2.5-1.5-6.1-2.2-8.7-1c-2.2,1.1-3.4,3.4-3.4,7
		c0,5.8,5.8,10.6,11,13.7h-5.4c-4.6-3.4-8.6-8.1-8.6-13.7c0-6,2.8-8.6,5.1-9.7c3.8-1.8,8.6-0.8,11.8,1.3
		C19.8,22.7,20.2,23,20.5,23.3z"/>
	<path class="st1" d="M31.6,48.9h-0.4v-0.2L31.6,48.9z"/>
	<path class="st1" d="M50.4,31c0,5.7-4,10.3-8.6,13.7h-5.4c5.3-3.1,11-7.9,11-13.7c0-3.6-1.1-6-3.4-7c-2.5-1.2-6.1-0.5-8.6,0.9
		c-0.4,0.2-0.8,0.5-1.2,0.8l-1-1.2l-1-1.2c0.3-0.2,0.6-0.5,1-0.7c0.7-0.4,1.4-0.8,2.1-1.1c3-1.3,6.8-1.7,9.9-0.3
		c0.7,0.3,1.4,0.8,1.9,1.3c0.8,0.7,1.4,1.5,1.9,2.4C50,26.8,50.5,28.9,50.4,31z"/>
	<path class="st1" d="M64.2,31c0,5.7-4,10.3-8.6,13.7h-5.4c5.3-3.1,11-7.9,11-13.7c0-3.6-1.1-6-3.4-7c-2.6-1.2-6.2-0.5-8.7,1
		c-0.4,0.2-0.7,0.5-1.1,0.7l-1.9-2.3c0.4-0.3,0.7-0.6,1.1-0.8c3.2-2,8-3.1,11.8-1.3C61.4,22.4,64.2,24.9,64.2,31z"/>
	<circle class="st1" cx="33.3" cy="20.7" r="4.3"/>
	<circle class="st1" cx="33.3" cy="14.8" r="2.9"/>
	<path class="st1" d="M36.8,7.6c-0.7,1.9-2.8,2.9-4.7,2.2c-1.9-0.7-2.9-2.8-2.2-4.7c0.5-1.5,1.9-2.4,3.5-2.4
		C35.5,3.4,36.8,5.4,36.8,7.6z"/>
	<path class="st1" d="M36.8,7.6c-0.7,1.9-2.8,2.9-4.7,2.2c-1.9-0.7-2.9-2.8-2.2-4.7c0.5-1.5,1.9-2.4,3.5-2.4
		C35.5,3.4,36.8,5.4,36.8,7.6z"/>
	<path class="st1" d="M32.1,16.2c0,0.1,0,0.2,0,0.3c-1.4-1.9-4.1-2.4-6-1c-1.1,0.8-1.7,1.9-1.8,3.3c-1.4-1.9-0.9-4.7,1-6
		c1.9-1.4,4.7-0.9,6,1C31.8,14.4,32.1,15.3,32.1,16.2L32.1,16.2z"/>
	<path class="st1" d="M43.2,16.2c0,0.9-0.3,1.8-0.8,2.5c-0.2-2.4-2.2-4.2-4.6-4c-1.3,0.1-2.5,0.7-3.3,1.8c0-0.1,0-0.2,0-0.3
		c0-2.4,1.9-4.3,4.3-4.3C41.3,11.8,43.3,13.8,43.2,16.2L43.2,16.2z"/>
	<rect x="10.4" y="54.5" class="st1" width="45.9" height="4.4"/>
</g>
</svg>
