<?xml version="1.0" encoding="utf-8"?>
<!-- Generator: Adobe Illustrator 25.2.0, SVG Export Plug-In . SVG Version: 6.00 Build 0)  -->
<svg version="1.1" id="Calque_1" xmlns="http://www.w3.org/2000/svg" xmlns:xlink="http://www.w3.org/1999/xlink" x="0px" y="0px"
	 viewBox="0 0 56.9 34.3" style="enable-background:new 0 0 56.9 34.3;" xml:space="preserve">
<style type="text/css">
	.st0{fill:none;stroke:#8A4018;stroke-width:5;stroke-miterlimit:10;}
	.st1{fill:#BF7529;}
</style>
<g id="Calque_2_1_">
	<rect x="5.4" y="29.1" class="st0" width="46.2" height="2.7"/>
	<path class="st0" d="M54.5,6l-0.9,6.3l-0.1,0.5v0.2l-1.9,14.1H5.4L3.5,13.1v-0.2l-0.1-0.5L2.5,6C4,5.6,5.3,6,5.7,6.8
		c0,0.1,0.1,0.1,0.1,0.2c0,0.2,0,0.4,0,0.6l-0.6,3.8l-0.1,0.1c0,0.1,0,0.1,0,0.2v-0.2L8,8.8c0.1-0.1,0.3-0.2,0.5-0.3
		c1-0.3,2.1,0.7,2.5,2.2s0,3-1,3.2c-0.2,0-0.4,0-0.5,0l-4.1-0.7c0.9,3.2,3.3,5.4,5.8,5.2c2.1-0.2,3.8-1.9,4.6-4.2
		c-0.7-0.2-1-0.9-0.8-1.6c0.2-0.5,0.7-0.8,1.2-0.8h0.1c0.7,0,1.2,0.6,1.2,1.3c0,0.5-0.3,0.9-0.7,1.1c1,2.4,2.8,4.1,5,4.1
		c3.1,0,5.7-3.5,5.7-7.9l0,0l-3.6,1.7c-0.2,0.1-0.4,0.1-0.5,0.1c-1,0-1.8-1.3-1.8-2.9s0.8-2.9,1.8-2.9c0.2,0,0.4,0,0.5,0.1l3.4,1.6
		h0.1L27.2,8l-1.5-3.1c0,0,0-0.1,0-0.1c-0.1-0.1-0.1-0.3-0.1-0.4c0-1,1.3-1.8,2.9-1.8s2.9,0.8,2.9,1.8c0,0.2,0,0.3-0.1,0.4
		c0,0,0,0.1,0,0.1L29.8,8l-0.2,0.4h0.1l3.4-1.6c0.2-0.1,0.4-0.1,0.5-0.1c1,0,1.8,1.3,1.8,2.9s-0.8,2.9-1.8,2.9c-0.2,0-0.4,0-0.5-0.1
		l-3.6-1.7l0,0c0,4.3,2.5,7.9,5.7,7.9c2.1,0,4-1.7,5-4.1c-0.6-0.3-0.9-1.1-0.6-1.7c0.2-0.4,0.6-0.7,1.1-0.7h0.1
		c0.7,0,1.3,0.6,1.3,1.3c0,0.5-0.3,1-0.8,1.2c0.8,2.4,2.5,4.1,4.6,4.2c2.5,0.2,4.9-2,5.8-5.2l-4.1,0.7c-0.2,0-0.4,0-0.5,0
		c-1-0.3-1.4-1.7-1-3.2s1.6-2.5,2.5-2.2c0.2,0,0.4,0.1,0.5,0.3l2.9,2.5l-0.6-3.8c0-0.2,0-0.4,0-0.6c0-0.1,0-0.1,0.1-0.2
		C51.6,6,53,5.6,54.5,6z"/>
	<path class="st0" d="M5.1,11.4v0.2C5.1,11.5,5.1,11.5,5.1,11.4L5.1,11.4z"/>
	<path class="st0" d="M5.1,11.4v0.2C5.1,11.5,5.1,11.5,5.1,11.4L5.1,11.4z"/>
	<path class="st0" d="M5.1,11.4v0.2C5.1,11.5,5.1,11.5,5.1,11.4L5.1,11.4z"/>
</g>
<g id="Calque_1_1_">
	<rect x="5.4" y="29.1" class="st1" width="46.2" height="2.7"/>
	<path class="st1" d="M54.5,6l-0.9,6.3l-0.1,0.5v0.2l-1.9,14.1H5.4L3.5,13.1v-0.2l-0.1-0.5L2.5,6C4,5.6,5.3,6,5.7,6.8
		c0,0.1,0.1,0.1,0.1,0.2c0,0.2,0,0.4,0,0.6l-0.6,3.8l-0.1,0.1c0,0.1,0,0.1,0,0.2v-0.2L8,8.8c0.1-0.1,0.3-0.2,0.5-0.3
		c1-0.3,2.1,0.7,2.5,2.2s0,3-1,3.2c-0.2,0-0.4,0-0.5,0l-4.1-0.7c0.9,3.2,3.3,5.4,5.8,5.2c2.1-0.2,3.8-1.9,4.6-4.2
		c-0.7-0.2-1-0.9-0.8-1.6c0.2-0.5,0.7-0.8,1.2-0.8h0.1c0.7,0,1.2,0.6,1.2,1.3c0,0.5-0.3,0.9-0.7,1.1c1,2.4,2.8,4.1,5,4.1
		c3.1,0,5.7-3.5,5.7-7.9l0,0l-3.6,1.7c-0.2,0.1-0.4,0.1-0.5,0.1c-1,0-1.8-1.3-1.8-2.9s0.8-2.9,1.8-2.9c0.2,0,0.4,0,0.5,0.1l3.4,1.6
		h0.1L27.2,8l-1.5-3.1c0,0,0-0.1,0-0.1c-0.1-0.1-0.1-0.3-0.1-0.4c0-1,1.3-1.8,2.9-1.8s2.9,0.8,2.9,1.8c0,0.2,0,0.3-0.1,0.4
		c0,0,0,0.1,0,0.1L29.8,8l-0.2,0.4h0.1l3.4-1.6c0.2-0.1,0.4-0.1,0.5-0.1c1,0,1.8,1.3,1.8,2.9s-0.8,2.9-1.8,2.9c-0.2,0-0.4,0-0.5-0.1
		l-3.6-1.7l0,0c0,4.3,2.5,7.9,5.7,7.9c2.1,0,4-1.7,5-4.1c-0.6-0.3-0.9-1.1-0.6-1.7c0.2-0.4,0.6-0.7,1.1-0.7h0.1
		c0.7,0,1.3,0.6,1.3,1.3c0,0.5-0.3,1-0.8,1.2c0.8,2.4,2.5,4.1,4.6,4.2c2.5,0.2,4.9-2,5.8-5.2l-4.1,0.7c-0.2,0-0.4,0-0.5,0
		c-1-0.3-1.4-1.7-1-3.2s1.6-2.5,2.5-2.2c0.2,0,0.4,0.1,0.5,0.3l2.9,2.5l-0.6-3.8c0-0.2,0-0.4,0-0.6c0-0.1,0-0.1,0.1-0.2
		C51.6,6,53,5.6,54.5,6z"/>
	<path class="st1" d="M5.1,11.4v0.2C5.1,11.5,5.1,11.5,5.1,11.4L5.1,11.4z"/>
	<path class="st1" d="M5.1,11.4v0.2C5.1,11.5,5.1,11.5,5.1,11.4L5.1,11.4z"/>
	<path class="st1" d="M5.1,11.4v0.2C5.1,11.5,5.1,11.5,5.1,11.4L5.1,11.4z"/>
</g>
</svg>
