<svg xmlns="http://www.w3.org/2000/svg" viewBox="0 0 56.92 34.33"><defs><style>.cls-1{fill:none;stroke:#000;stroke-linejoin:round;stroke-width:5px;}.cls-2{fill:#bf7529;}</style></defs><title>roi_3</title><g id="Calque_2" data-name="Calque 2"><rect class="cls-1" x="5.37" y="29.11" width="46.18" height="2.72"/><path class="cls-1" d="M460,288.05l-.85,6.31-.08.53,0,.24-1.91,14.1H410.91L409,295.13l0-.24-.08-.53-.85-6.31c1.42-.4,2.77-.05,3.17.79a.64.64,0,0,1,.08.19,1.18,1.18,0,0,1,0,.56l-.62,3.81-.06.06a.58.58,0,0,0,0,.19l0-.25,2.92-2.53a1.13,1.13,0,0,1,.49-.27c1-.28,2.11.73,2.54,2.25s0,3-1,3.25a1.13,1.13,0,0,1-.55,0l-4.09-.66c.94,3.17,3.27,5.36,5.81,5.17,2.07-.16,3.77-1.85,4.58-4.25a1.26,1.26,0,0,1,.41-2.45h.07a1.25,1.25,0,0,1,.52,2.37c1,2.44,2.83,4.1,5,4.1,3.13,0,5.66-3.52,5.66-7.86h0l-3.62,1.69a1.13,1.13,0,0,1-.54.13c-1,0-1.83-1.28-1.83-2.86s.82-2.86,1.83-2.86a1.13,1.13,0,0,1,.54.13l3.4,1.59.09,0-.16-.35-1.47-3.14a.42.42,0,0,1,0-.1,1.12,1.12,0,0,1-.09-.44c0-1,1.28-1.83,2.86-1.83s2.86.82,2.86,1.83a1.12,1.12,0,0,1-.09.44.42.42,0,0,1,0,.1l-1.47,3.14-.16.35.09,0,3.4-1.59a1.13,1.13,0,0,1,.54-.13c1,0,1.83,1.28,1.83,2.86s-.82,2.86-1.83,2.86a1.13,1.13,0,0,1-.54-.13L435,292.54h0c0,4.34,2.53,7.86,5.66,7.86,2.14,0,4-1.66,5-4.1a1.25,1.25,0,0,1,.52-2.37h.07a1.26,1.26,0,0,1,.41,2.45c.81,2.4,2.51,4.09,4.58,4.25,2.54.19,4.87-2,5.81-5.17l-4.09.66a1.13,1.13,0,0,1-.55,0c-1-.27-1.42-1.73-1-3.25s1.57-2.53,2.54-2.25a1.13,1.13,0,0,1,.49.27l2.92,2.53-.62-3.81a1.18,1.18,0,0,1,0-.56.64.64,0,0,1,.08-.19C457.19,288,458.54,287.65,460,288.05Z" transform="translate(-405.54 -282.04)"/><path class="cls-1" d="M410.69,293.4l0,.25a.58.58,0,0,1,0-.19Z" transform="translate(-405.54 -282.04)"/><path class="cls-1" d="M410.69,293.4l0,.25a.58.58,0,0,1,0-.19Z" transform="translate(-405.54 -282.04)"/><path class="cls-1" d="M410.69,293.4l0,.25a.58.58,0,0,1,0-.19Z" transform="translate(-405.54 -282.04)"/></g><g id="Calque_1" data-name="Calque 1"><rect class="cls-2" x="5.37" y="29.11" width="46.18" height="2.72"/><path class="cls-2" d="M460,288.05l-.85,6.31-.08.53,0,.24-1.91,14.1H410.91L409,295.13l0-.24-.08-.53-.85-6.31c1.42-.4,2.77-.05,3.17.79a.64.64,0,0,1,.08.19,1.18,1.18,0,0,1,0,.56l-.62,3.81-.06.06a.58.58,0,0,0,0,.19l0-.25,2.92-2.53a1.13,1.13,0,0,1,.49-.27c1-.28,2.11.73,2.54,2.25s0,3-1,3.25a1.13,1.13,0,0,1-.55,0l-4.09-.66c.94,3.17,3.27,5.36,5.81,5.17,2.07-.16,3.77-1.85,4.58-4.25a1.26,1.26,0,0,1,.41-2.45h.07a1.25,1.25,0,0,1,.52,2.37c1,2.44,2.83,4.1,5,4.1,3.13,0,5.66-3.52,5.66-7.86h0l-3.62,1.69a1.13,1.13,0,0,1-.54.13c-1,0-1.83-1.28-1.83-2.86s.82-2.86,1.83-2.86a1.13,1.13,0,0,1,.54.13l3.4,1.59.09,0-.16-.35-1.47-3.14a.42.42,0,0,1,0-.1,1.12,1.12,0,0,1-.09-.44c0-1,1.28-1.83,2.86-1.83s2.86.82,2.86,1.83a1.12,1.12,0,0,1-.09.44.42.42,0,0,1,0,.1l-1.47,3.14-.16.35.09,0,3.4-1.59a1.13,1.13,0,0,1,.54-.13c1,0,1.83,1.28,1.83,2.86s-.82,2.86-1.83,2.86a1.13,1.13,0,0,1-.54-.13L435,292.54h0c0,4.34,2.53,7.86,5.66,7.86,2.14,0,4-1.66,5-4.1a1.25,1.25,0,0,1,.52-2.37h.07a1.26,1.26,0,0,1,.41,2.45c.81,2.4,2.51,4.09,4.58,4.25,2.54.19,4.87-2,5.81-5.17l-4.09.66a1.13,1.13,0,0,1-.55,0c-1-.27-1.42-1.73-1-3.25s1.57-2.53,2.54-2.25a1.13,1.13,0,0,1,.49.27l2.92,2.53-.62-3.81a1.18,1.18,0,0,1,0-.56.64.64,0,0,1,.08-.19C457.19,288,458.54,287.65,460,288.05Z" transform="translate(-405.54 -282.04)"/><path class="cls-2" d="M410.69,293.4l0,.25a.58.58,0,0,1,0-.19Z" transform="translate(-405.54 -282.04)"/><path class="cls-2" d="M410.69,293.4l0,.25a.58.58,0,0,1,0-.19Z" transform="translate(-405.54 -282.04)"/><path class="cls-2" d="M410.69,293.4l0,.25a.58.58,0,0,1,0-.19Z" transform="translate(-405.54 -282.04)"/></g></svg>